<svg xmlns="http://www.w3.org/2000/svg" xmlns:xlink="http://www.w3.org/1999/xlink" width="810" zoomAndPan="magnify" viewBox="0 0 607.5 607.499986" height="810" preserveAspectRatio="xMidYMid meet" version="1.0"><defs><clipPath id="cb79ab8c23"><path d="M 69.527344 204 L 483 204 L 483 506.289062 L 69.527344 506.289062 Z M 69.527344 204 " clip-rule="nonzero"/></clipPath><clipPath id="98bcea7c1d"><path d="M 133 108 L 546.132812 108 L 546.132812 411 L 133 411 Z M 133 108 " clip-rule="nonzero"/></clipPath><clipPath id="498c804e28"><path d="M 164 164 L 546.132812 164 L 546.132812 181 L 164 181 Z M 164 164 " clip-rule="nonzero"/></clipPath><clipPath id="761101663a"><path d="M 463 236 L 546.132812 236 L 546.132812 252 L 463 252 Z M 463 236 " clip-rule="nonzero"/></clipPath><clipPath id="34607ba6da"><path d="M 117 100.871094 L 134 100.871094 L 134 125 L 117 125 Z M 117 100.871094 " clip-rule="nonzero"/></clipPath><clipPath id="d193f4517b"><path d="M 69.527344 148 L 94 148 L 94 165 L 69.527344 165 Z M 69.527344 148 " clip-rule="nonzero"/></clipPath><clipPath id="d6845c706d"><path d="M 72.421875 204 L 486 204 L 486 507.035156 L 72.421875 507.035156 Z M 72.421875 204 " clip-rule="nonzero"/></clipPath><clipPath id="c4f060c972"><path d="M 135 109 L 549.03125 109 L 549.03125 412 L 135 412 Z M 135 109 " clip-rule="nonzero"/></clipPath><clipPath id="92c309f50a"><path d="M 466 236 L 549.03125 236 L 549.03125 253 L 466 253 Z M 466 236 " clip-rule="nonzero"/></clipPath><clipPath id="e6fe8be05b"><path d="M 120 101.621094 L 136 101.621094 L 136 126 L 120 126 Z M 120 101.621094 " clip-rule="nonzero"/></clipPath><clipPath id="cfcbacb8b5"><path d="M 72.421875 149 L 97 149 L 97 166 L 72.421875 166 Z M 72.421875 149 " clip-rule="nonzero"/></clipPath></defs><g clip-path="url(#cb79ab8c23)"><path fill="#000000" d="M 424.996094 506.289062 L 127.117188 506.289062 C 95.363281 506.289062 69.527344 480.433594 69.527344 448.65625 L 69.527344 261.84375 C 69.527344 230.066406 95.363281 204.210938 127.117188 204.210938 L 424.996094 204.210938 C 456.75 204.210938 482.585938 230.066406 482.585938 261.84375 L 482.585938 448.65625 C 482.585938 480.433594 456.75 506.289062 424.996094 506.289062 Z M 127.117188 220.109375 C 104.121094 220.109375 85.414062 238.832031 85.414062 261.84375 L 85.414062 448.65625 C 85.414062 471.667969 104.121094 490.390625 127.117188 490.390625 L 424.996094 490.390625 C 447.992188 490.390625 466.699219 471.667969 466.699219 448.65625 L 466.699219 261.84375 C 466.699219 238.832031 447.992188 220.109375 424.996094 220.109375 Z M 127.117188 220.109375 " fill-opacity="1" fill-rule="nonzero"/></g><g clip-path="url(#98bcea7c1d)"><path fill="#000000" d="M 488.542969 410.894531 L 474.640625 410.894531 C 470.253906 410.894531 466.699219 407.335938 466.699219 402.945312 C 466.699219 398.554688 470.253906 394.996094 474.640625 394.996094 L 488.542969 394.996094 C 511.539062 394.996094 530.246094 376.273438 530.246094 353.261719 L 530.246094 166.453125 C 530.246094 143.441406 511.539062 124.71875 488.542969 124.71875 L 190.664062 124.71875 C 167.671875 124.71875 148.960938 143.441406 148.960938 166.453125 L 148.960938 212.160156 C 148.960938 216.550781 145.40625 220.109375 141.019531 220.109375 C 136.632812 220.109375 133.074219 216.550781 133.074219 212.160156 L 133.074219 166.453125 C 133.074219 134.675781 158.910156 108.820312 190.664062 108.820312 L 488.542969 108.820312 C 520.296875 108.820312 546.132812 134.675781 546.132812 166.453125 L 546.132812 353.261719 C 546.132812 385.042969 520.296875 410.894531 488.542969 410.894531 Z M 488.542969 410.894531 " fill-opacity="1" fill-rule="nonzero"/></g><g clip-path="url(#498c804e28)"><path fill="#000000" d="M 538.109375 180.363281 L 172.792969 180.363281 C 168.40625 180.363281 164.847656 176.804688 164.847656 172.414062 C 164.847656 168.023438 168.40625 164.464844 172.792969 164.464844 L 538.109375 164.464844 C 542.496094 164.464844 546.054688 168.023438 546.054688 172.414062 C 546.054688 176.804688 542.496094 180.363281 538.109375 180.363281 Z M 538.109375 180.363281 " fill-opacity="1" fill-rule="nonzero"/></g><g clip-path="url(#761101663a)"><path fill="#000000" d="M 538.1875 251.910156 L 471.328125 251.910156 C 466.941406 251.910156 463.382812 248.347656 463.382812 243.960938 C 463.382812 239.570312 466.941406 236.011719 471.328125 236.011719 L 538.1875 236.011719 C 542.574219 236.011719 546.132812 239.570312 546.132812 243.960938 C 546.132812 248.347656 542.574219 251.910156 538.1875 251.910156 Z M 538.1875 251.910156 " fill-opacity="1" fill-rule="nonzero"/></g><path fill="#000000" d="M 160.878906 323.453125 L 137.046875 323.453125 C 121.71875 323.453125 109.246094 310.972656 109.246094 295.628906 L 109.246094 271.78125 C 109.246094 256.441406 121.71875 243.960938 137.046875 243.960938 L 160.878906 243.960938 C 176.207031 243.960938 188.679688 256.441406 188.679688 271.78125 L 188.679688 295.628906 C 188.679688 310.972656 176.207031 323.453125 160.878906 323.453125 Z M 137.046875 259.859375 C 130.476562 259.859375 125.132812 265.207031 125.132812 271.78125 L 125.132812 295.628906 C 125.132812 302.207031 130.476562 307.554688 137.046875 307.554688 L 160.878906 307.554688 C 167.449219 307.554688 172.792969 302.207031 172.792969 295.628906 L 172.792969 271.78125 C 172.792969 265.207031 167.449219 259.859375 160.878906 259.859375 Z M 137.046875 259.859375 " fill-opacity="1" fill-rule="nonzero"/><path fill="#000000" d="M 419.039062 394.996094 L 268.113281 394.996094 C 263.726562 394.996094 260.167969 391.4375 260.167969 387.046875 C 260.167969 382.65625 263.726562 379.097656 268.113281 379.097656 L 419.039062 379.097656 C 423.417969 379.097656 426.980469 375.53125 426.980469 371.148438 C 426.980469 366.765625 423.417969 363.199219 419.039062 363.199219 L 133.074219 363.199219 C 128.695312 363.199219 125.132812 366.765625 125.132812 371.148438 C 125.132812 375.53125 128.695312 379.097656 133.074219 379.097656 L 236.339844 379.097656 C 240.726562 379.097656 244.28125 382.65625 244.28125 387.046875 C 244.28125 391.4375 240.726562 394.996094 236.339844 394.996094 L 133.074219 394.996094 C 119.933594 394.996094 109.246094 384.300781 109.246094 371.148438 C 109.246094 358 119.933594 347.300781 133.074219 347.300781 L 419.039062 347.300781 C 432.179688 347.300781 442.867188 358 442.867188 371.148438 C 442.867188 384.300781 432.179688 394.996094 419.039062 394.996094 Z M 419.039062 394.996094 " fill-opacity="1" fill-rule="nonzero"/><path fill="#000000" d="M 307.832031 458.589844 L 133.074219 458.589844 C 119.9375 458.589844 109.246094 447.894531 109.246094 434.742188 C 109.246094 421.59375 119.9375 410.894531 133.074219 410.894531 L 307.832031 410.894531 C 320.96875 410.894531 331.660156 421.59375 331.660156 434.742188 C 331.660156 447.894531 320.96875 458.589844 307.832031 458.589844 Z M 133.074219 426.792969 C 128.695312 426.792969 125.132812 430.359375 125.132812 434.742188 C 125.132812 439.125 128.695312 442.691406 133.074219 442.691406 L 307.832031 442.691406 C 312.210938 442.691406 315.773438 439.125 315.773438 434.742188 C 315.773438 430.359375 312.210938 426.792969 307.832031 426.792969 Z M 133.074219 426.792969 " fill-opacity="1" fill-rule="nonzero"/><path fill="#000000" d="M 426.980469 275.757812 L 379.320312 275.757812 C 374.933594 275.757812 371.378906 272.199219 371.378906 267.808594 C 371.378906 263.417969 374.933594 259.859375 379.320312 259.859375 L 426.980469 259.859375 C 431.367188 259.859375 434.925781 263.417969 434.925781 267.808594 C 434.925781 272.199219 431.367188 275.757812 426.980469 275.757812 Z M 426.980469 275.757812 " fill-opacity="1" fill-rule="nonzero"/><path fill="#000000" d="M 426.980469 307.554688 L 395.207031 307.554688 C 390.820312 307.554688 387.265625 303.996094 387.265625 299.605469 C 387.265625 295.214844 390.820312 291.65625 395.207031 291.65625 L 426.980469 291.65625 C 431.367188 291.65625 434.925781 295.214844 434.925781 299.605469 C 434.925781 303.996094 431.367188 307.554688 426.980469 307.554688 Z M 426.980469 307.554688 " fill-opacity="1" fill-rule="nonzero"/><path fill="#000000" d="M 101.300781 140.617188 C 99.269531 140.617188 97.234375 139.84375 95.683594 138.289062 L 87.742188 130.339844 C 84.640625 127.234375 84.640625 122.203125 87.742188 119.097656 C 90.84375 115.996094 95.871094 115.996094 98.972656 119.097656 L 106.917969 127.046875 C 110.019531 130.152344 110.019531 135.183594 106.917969 138.289062 C 105.367188 139.84375 103.335938 140.617188 101.300781 140.617188 Z M 101.300781 140.617188 " fill-opacity="1" fill-rule="nonzero"/><g clip-path="url(#34607ba6da)"><path fill="#000000" d="M 125.132812 124.71875 C 120.746094 124.71875 117.1875 121.160156 117.1875 116.769531 L 117.1875 108.820312 C 117.1875 104.429688 120.746094 100.871094 125.132812 100.871094 C 129.519531 100.871094 133.074219 104.429688 133.074219 108.820312 L 133.074219 116.769531 C 133.074219 121.160156 129.519531 124.71875 125.132812 124.71875 Z M 125.132812 124.71875 " fill-opacity="1" fill-rule="nonzero"/></g><g clip-path="url(#d193f4517b)"><path fill="#000000" d="M 85.414062 164.464844 L 77.472656 164.464844 C 73.085938 164.464844 69.527344 160.90625 69.527344 156.515625 C 69.527344 152.125 73.085938 148.566406 77.472656 148.566406 L 85.414062 148.566406 C 89.800781 148.566406 93.359375 152.125 93.359375 156.515625 C 93.359375 160.90625 89.800781 164.464844 85.414062 164.464844 Z M 85.414062 164.464844 " fill-opacity="1" fill-rule="nonzero"/></g><g clip-path="url(#d6845c706d)"><path fill="#000000" d="M 427.890625 507.035156 L 130.015625 507.035156 C 98.261719 507.035156 72.425781 481.183594 72.425781 449.402344 L 72.425781 262.59375 C 72.425781 230.816406 98.261719 204.960938 130.015625 204.960938 L 427.890625 204.960938 C 459.648438 204.960938 485.480469 230.816406 485.480469 262.59375 L 485.480469 449.402344 C 485.480469 481.183594 459.648438 507.035156 427.890625 507.035156 Z M 130.015625 220.859375 C 107.019531 220.859375 88.3125 239.582031 88.3125 262.59375 L 88.3125 449.402344 C 88.3125 472.417969 107.019531 491.136719 130.015625 491.136719 L 427.890625 491.136719 C 450.886719 491.136719 469.59375 472.417969 469.59375 449.402344 L 469.59375 262.59375 C 469.59375 239.582031 450.886719 220.859375 427.890625 220.859375 Z M 130.015625 220.859375 " fill-opacity="1" fill-rule="nonzero"/></g><g clip-path="url(#c4f060c972)"><path fill="#000000" d="M 491.441406 411.644531 L 477.539062 411.644531 C 473.152344 411.644531 469.59375 408.085938 469.59375 403.695312 C 469.59375 399.304688 473.152344 395.746094 477.539062 395.746094 L 491.441406 395.746094 C 514.433594 395.746094 533.140625 377.023438 533.140625 354.011719 L 533.140625 167.203125 C 533.140625 144.191406 514.433594 125.46875 491.441406 125.46875 L 193.5625 125.46875 C 170.566406 125.46875 151.859375 144.191406 151.859375 167.203125 L 151.859375 212.910156 C 151.859375 217.300781 148.304688 220.859375 143.917969 220.859375 C 139.53125 220.859375 135.972656 217.300781 135.972656 212.910156 L 135.972656 167.203125 C 135.972656 135.425781 161.808594 109.570312 193.5625 109.570312 L 491.441406 109.570312 C 523.195312 109.570312 549.027344 135.425781 549.027344 167.203125 L 549.027344 354.011719 C 549.027344 385.789062 523.195312 411.644531 491.441406 411.644531 Z M 491.441406 411.644531 " fill-opacity="1" fill-rule="nonzero"/></g><path fill="#000000" d="M 541.007812 181.113281 L 175.691406 181.113281 C 171.304688 181.113281 167.746094 177.554688 167.746094 173.164062 C 167.746094 168.773438 171.304688 165.214844 175.691406 165.214844 L 541.007812 165.214844 C 545.394531 165.214844 548.949219 168.773438 548.949219 173.164062 C 548.949219 177.554688 545.394531 181.113281 541.007812 181.113281 Z M 541.007812 181.113281 " fill-opacity="1" fill-rule="nonzero"/><g clip-path="url(#92c309f50a)"><path fill="#000000" d="M 541.085938 252.65625 L 474.222656 252.65625 C 469.835938 252.65625 466.28125 249.097656 466.28125 244.707031 C 466.28125 240.320312 469.835938 236.757812 474.222656 236.757812 L 541.085938 236.757812 C 545.472656 236.757812 549.027344 240.320312 549.027344 244.707031 C 549.027344 249.097656 545.472656 252.65625 541.085938 252.65625 Z M 541.085938 252.65625 " fill-opacity="1" fill-rule="nonzero"/></g><path fill="#000000" d="M 163.773438 324.203125 L 139.945312 324.203125 C 124.613281 324.203125 112.144531 311.71875 112.144531 296.378906 L 112.144531 272.53125 C 112.144531 257.191406 124.613281 244.707031 139.945312 244.707031 L 163.773438 244.707031 C 179.105469 244.707031 191.578125 257.191406 191.578125 272.53125 L 191.578125 296.378906 C 191.578125 311.71875 179.105469 324.203125 163.773438 324.203125 Z M 139.945312 260.605469 C 133.375 260.605469 128.03125 265.957031 128.03125 272.53125 L 128.03125 296.378906 C 128.03125 302.953125 133.375 308.304688 139.945312 308.304688 L 163.773438 308.304688 C 170.34375 308.304688 175.691406 302.953125 175.691406 296.378906 L 175.691406 272.53125 C 175.691406 265.957031 170.34375 260.605469 163.773438 260.605469 Z M 139.945312 260.605469 " fill-opacity="1" fill-rule="nonzero"/><path fill="#000000" d="M 421.933594 395.746094 L 271.011719 395.746094 C 266.625 395.746094 263.066406 392.1875 263.066406 387.796875 C 263.066406 383.40625 266.625 379.847656 271.011719 379.847656 L 421.933594 379.847656 C 426.316406 379.847656 429.878906 376.28125 429.878906 371.898438 C 429.878906 367.515625 426.316406 363.949219 421.933594 363.949219 L 135.972656 363.949219 C 131.59375 363.949219 128.03125 367.515625 128.03125 371.898438 C 128.03125 376.28125 131.59375 379.847656 135.972656 379.847656 L 239.238281 379.847656 C 243.625 379.847656 247.179688 383.40625 247.179688 387.796875 C 247.179688 392.1875 243.625 395.746094 239.238281 395.746094 L 135.972656 395.746094 C 122.832031 395.746094 112.144531 385.046875 112.144531 371.898438 C 112.144531 358.746094 122.832031 348.050781 135.972656 348.050781 L 421.933594 348.050781 C 435.074219 348.050781 445.765625 358.746094 445.765625 371.898438 C 445.765625 385.046875 435.074219 395.746094 421.933594 395.746094 Z M 421.933594 395.746094 " fill-opacity="1" fill-rule="nonzero"/><path fill="#000000" d="M 310.726562 459.339844 L 135.972656 459.339844 C 122.832031 459.339844 112.144531 448.640625 112.144531 435.492188 C 112.144531 422.34375 122.832031 411.644531 135.972656 411.644531 L 310.726562 411.644531 C 323.867188 411.644531 334.558594 422.34375 334.558594 435.492188 C 334.558594 448.640625 323.867188 459.339844 310.726562 459.339844 Z M 135.972656 427.542969 C 131.59375 427.542969 128.03125 431.109375 128.03125 435.492188 C 128.03125 439.875 131.59375 443.441406 135.972656 443.441406 L 310.726562 443.441406 C 315.105469 443.441406 318.671875 439.875 318.671875 435.492188 C 318.671875 431.109375 315.105469 427.542969 310.726562 427.542969 Z M 135.972656 427.542969 " fill-opacity="1" fill-rule="nonzero"/><path fill="#000000" d="M 429.878906 276.507812 L 382.21875 276.507812 C 377.832031 276.507812 374.273438 272.945312 374.273438 268.558594 C 374.273438 264.167969 377.832031 260.605469 382.21875 260.605469 L 429.878906 260.605469 C 434.265625 260.605469 437.820312 264.167969 437.820312 268.558594 C 437.820312 272.945312 434.265625 276.507812 429.878906 276.507812 Z M 429.878906 276.507812 " fill-opacity="1" fill-rule="nonzero"/><path fill="#000000" d="M 429.878906 308.304688 L 398.105469 308.304688 C 393.71875 308.304688 390.160156 304.742188 390.160156 300.355469 C 390.160156 295.964844 393.71875 292.40625 398.105469 292.40625 L 429.878906 292.40625 C 434.265625 292.40625 437.820312 295.964844 437.820312 300.355469 C 437.820312 304.742188 434.265625 308.304688 429.878906 308.304688 Z M 429.878906 308.304688 " fill-opacity="1" fill-rule="nonzero"/><path fill="#000000" d="M 104.199219 141.367188 C 102.167969 141.367188 100.132812 140.589844 98.582031 139.039062 L 90.640625 131.089844 C 87.535156 127.984375 87.535156 122.953125 90.640625 119.847656 C 93.742188 116.746094 98.769531 116.746094 101.871094 119.847656 L 109.816406 127.796875 C 112.917969 130.902344 112.917969 135.933594 109.816406 139.039062 C 108.265625 140.589844 106.230469 141.367188 104.199219 141.367188 Z M 104.199219 141.367188 " fill-opacity="1" fill-rule="nonzero"/><g clip-path="url(#e6fe8be05b)"><path fill="#000000" d="M 128.03125 125.46875 C 123.644531 125.46875 120.085938 121.910156 120.085938 117.519531 L 120.085938 109.570312 C 120.085938 105.179688 123.644531 101.621094 128.03125 101.621094 C 132.417969 101.621094 135.972656 105.179688 135.972656 109.570312 L 135.972656 117.519531 C 135.972656 121.910156 132.417969 125.46875 128.03125 125.46875 Z M 128.03125 125.46875 " fill-opacity="1" fill-rule="nonzero"/></g><g clip-path="url(#cfcbacb8b5)"><path fill="#000000" d="M 88.3125 165.214844 L 80.367188 165.214844 C 75.980469 165.214844 72.425781 161.65625 72.425781 157.265625 C 72.425781 152.875 75.980469 149.316406 80.367188 149.316406 L 88.3125 149.316406 C 92.699219 149.316406 96.257812 152.875 96.257812 157.265625 C 96.257812 161.65625 92.699219 165.214844 88.3125 165.214844 Z M 88.3125 165.214844 " fill-opacity="1" fill-rule="nonzero"/></g></svg>