<svg width="23" height="18" viewBox="0 0 23 18" fill="none" xmlns="http://www.w3.org/2000/svg">
<mask id="mask0_340_363" style="mask-type:luminance" maskUnits="userSpaceOnUse" x="1" y="0" width="22" height="15">
<path d="M14.5243 0H10.3216C6.35956 0 4.378 -1.11759e-07 3.14766 1.09875C2.2609 1.88906 2.01294 3.02719 1.9436 4.92188H22.9024C22.833 3.02719 22.5851 1.88906 21.6983 1.09875C20.468 -1.11759e-07 18.4864 0 14.5243 0ZM10.3216 15H14.5243C18.4864 15 20.468 15 21.6983 13.9012C22.9286 12.8025 22.9297 11.0353 22.9297 7.5C22.9297 7.08625 22.929 6.69562 22.9276 6.32812H1.91838C1.91628 6.69562 1.91558 7.08625 1.91628 7.5C1.91628 11.0353 1.91628 12.8034 3.14766 13.9012C4.37905 14.9991 6.35956 15 10.3216 15Z" fill="white"/>
<path fill-rule="evenodd" clip-rule="evenodd" d="M5.33105 11.25C5.33105 11.0635 5.41408 10.8847 5.56186 10.7528C5.70963 10.621 5.91007 10.5469 6.11906 10.5469H10.3217C10.5307 10.5469 10.7312 10.621 10.8789 10.7528C11.0267 10.8847 11.1097 11.0635 11.1097 11.25C11.1097 11.4365 11.0267 11.6153 10.8789 11.7472C10.7312 11.879 10.5307 11.9531 10.3217 11.9531H6.11906C5.91007 11.9531 5.70963 11.879 5.56186 11.7472C5.41408 11.6153 5.33105 11.4365 5.33105 11.25ZM12.1604 11.25C12.1604 11.0635 12.2434 10.8847 12.3912 10.7528C12.539 10.621 12.7394 10.5469 12.9484 10.5469H14.5244C14.7334 10.5469 14.9338 10.621 15.0816 10.7528C15.2294 10.8847 15.3124 11.0635 15.3124 11.25C15.3124 11.4365 15.2294 11.6153 15.0816 11.7472C14.9338 11.879 14.7334 11.9531 14.5244 11.9531H12.9484C12.7394 11.9531 12.539 11.879 12.3912 11.7472C12.2434 11.6153 12.1604 11.4365 12.1604 11.25Z" fill="black"/>
</mask>
<g mask="url(#mask0_340_363)">
<path d="M-0.18457 -3.75H25.0315V18.75H-0.18457V-3.75Z" fill="#111111"/>
</g>
</svg>
