<svg width="22" height="22" viewBox="0 0 22 22" fill="none" xmlns="http://www.w3.org/2000/svg">
<path d="M6.22321 15.114H8.00132V10.6687H6.22321V15.114ZM13.3356 15.114H15.1137V6.22345H13.3356V15.114ZM9.77943 15.114H11.5575V12.4468H9.77943V15.114ZM9.77943 10.6687H11.5575V8.89062H9.77943V10.6687ZM4.4451 18.6702C3.95612 18.6702 3.53767 18.4963 3.18976 18.1483C2.84184 17.8004 2.66758 17.3817 2.66699 16.8921V4.44534C2.66699 3.95636 2.84125 3.53792 3.18976 3.19C3.53827 2.84208 3.95671 2.66783 4.4451 2.66724H16.8919C17.3808 2.66724 17.7996 2.84149 18.1481 3.19C18.4966 3.53851 18.6706 3.95696 18.67 4.44534V16.8921C18.67 17.3811 18.496 17.7998 18.1481 18.1483C17.8002 18.4968 17.3814 18.6708 16.8919 18.6702H4.4451Z" fill="#111111"/>
</svg>
