<svg xmlns="http://www.w3.org/2000/svg" xmlns:xlink="http://www.w3.org/1999/xlink" width="810" zoomAndPan="magnify" viewBox="0 0 607.5 607.499986" height="810" preserveAspectRatio="xMidYMid meet" version="1.0"><defs><clipPath id="e957052f82"><path d="M 33 65.609375 L 574 65.609375 L 574 541.46875 L 33 541.46875 Z M 33 65.609375 " clip-rule="nonzero"/></clipPath></defs><g clip-path="url(#e957052f82)"><path fill="#000000" d="M 271.300781 86.664062 C 242.394531 137.203125 170.992188 263.660156 113.617188 365.28125 L 37.714844 499.609375 C 30.882812 511.632812 33.433594 521.140625 35.554688 525.738281 C 39.859375 535.046875 49.046875 539.6875 56.199219 540.941406 L 57.640625 541.1875 L 547.480469 541.203125 L 546.453125 541.164062 C 554.136719 541.636719 564.339844 538.871094 569.914062 529.699219 C 573.476562 523.816406 576.039062 513.804688 567.925781 499.570312 L 416.265625 234.539062 L 332.34375 87.941406 C 321.832031 69.558594 309.632812 65.691406 301.253906 65.691406 C 293.074219 65.691406 281.234375 69.324219 271.308594 86.664062 L 271.296875 86.664062 Z M 143.480469 382.691406 C 200.839844 281.105469 272.210938 154.695312 301.070312 104.234375 L 301.417969 103.6875 C 301.785156 104.246094 302.144531 104.761719 302.558594 105.5 L 386.507812 252.128906 C 386.507812 252.128906 520.445312 486.207031 531.902344 506.21875 L 73.671875 506.207031 L 143.472656 382.691406 " fill-opacity="1" fill-rule="evenodd"/></g><path fill="#000000" d="M 303.3125 480.84375 C 318.148438 480.84375 330.175781 468.390625 330.175781 453.035156 C 330.175781 437.691406 318.148438 425.238281 303.3125 425.238281 C 288.449219 425.238281 276.425781 437.691406 276.425781 453.035156 C 276.425781 468.390625 288.449219 480.84375 303.3125 480.84375 " fill-opacity="1" fill-rule="evenodd"/><path fill="#000000" d="M 303.3125 208.433594 C 324.75 208.433594 344.449219 228.714844 342.128906 248.597656 L 323.769531 388.457031 C 321.980469 400.675781 314.605469 409.617188 303.308594 409.617188 C 292.011719 409.617188 284.617188 400.675781 282.851562 388.457031 L 264.480469 248.597656 C 262.148438 228.714844 281.859375 208.433594 303.3125 208.433594 " fill-opacity="1" fill-rule="evenodd"/></svg>