<svg width="18" height="14" viewBox="0 0 18 14" fill="none" xmlns="http://www.w3.org/2000/svg">
<g clip-path="url(#clip0_209_635)">
<path d="M6.96728 12.6863C6.96728 12.7154 6.97091 12.788 6.97817 12.9041C6.98543 13.0202 6.98724 13.1164 6.98361 13.1926C6.97998 13.2688 6.9691 13.354 6.95095 13.4484C6.93281 13.5427 6.89652 13.6135 6.84209 13.6607C6.78766 13.7079 6.71327 13.7314 6.61892 13.7314H3.13528C2.27162 13.7314 1.53316 13.4248 0.919899 12.8115C0.306633 12.1983 0 11.4598 0 10.5962V2.93215C0 2.0685 0.306633 1.33004 0.919899 0.716774C1.53316 0.103508 2.27162 -0.203125 3.13528 -0.203125H6.61892C6.71327 -0.203125 6.79491 -0.168651 6.86386 -0.0997044C6.93281 -0.0307574 6.96728 0.0508905 6.96728 0.145239C6.96728 0.174269 6.97091 0.246845 6.97817 0.362967C6.98543 0.479088 6.98724 0.575251 6.98361 0.651456C6.97998 0.72766 6.9691 0.812937 6.95095 0.907285C6.93281 1.00163 6.89652 1.0724 6.84209 1.11957C6.78766 1.16674 6.71327 1.19033 6.61892 1.19033H3.13528C2.65628 1.19033 2.24622 1.36088 1.90512 1.70199C1.56401 2.0431 1.39346 2.45315 1.39346 2.93215V10.5962C1.39346 11.0752 1.56401 11.4852 1.90512 11.8263C2.24622 12.1674 2.65628 12.338 3.13528 12.338H6.53183L6.65702 12.3489L6.78221 12.3815L6.8693 12.4414L6.94551 12.5394L6.96728 12.6863ZM17.0698 6.76416C17.0698 6.95285 17.0009 7.11615 16.863 7.25404L10.9408 13.1762C10.8029 13.3141 10.6396 13.3831 10.4509 13.3831C10.2622 13.3831 10.0989 13.3141 9.96104 13.1762C9.82314 13.0383 9.75419 12.875 9.75419 12.6863V9.55107H4.8771C4.6884 9.55107 4.5251 9.48212 4.38721 9.34423C4.24932 9.20633 4.18037 9.04304 4.18037 8.85434V4.67397C4.18037 4.48527 4.24932 4.32198 4.38721 4.18408C4.5251 4.04619 4.6884 3.97724 4.8771 3.97724H9.75419V0.841967C9.75419 0.65327 9.82314 0.489974 9.96104 0.35208C10.0989 0.214186 10.2622 0.145239 10.4509 0.145239C10.6396 0.145239 10.8029 0.214186 10.9408 0.35208L16.863 6.27427C17.0009 6.41216 17.0698 6.57546 17.0698 6.76416Z" fill="#111111"/>
</g>
<defs>
<clipPath id="clip0_209_635">
<rect width="17.0698" height="13.9346" fill="white" transform="translate(0 -0.203125)"/>
</clipPath>
</defs>
</svg>
