<svg width="18" height="18" viewBox="0 0 18 18" fill="none" xmlns="http://www.w3.org/2000/svg">
<path fill-rule="evenodd" clip-rule="evenodd" d="M2.13361 1.42261C2.52643 1.42261 2.84486 1.74104 2.84486 2.13386V13.5139C2.84486 13.9067 3.1633 14.2251 3.55611 14.2251H14.9361C15.3289 14.2251 15.6474 14.5435 15.6474 14.9364C15.6474 15.3292 15.3289 15.6476 14.9361 15.6476H3.55611C2.37768 15.6476 1.42236 14.6923 1.42236 13.5139V2.13386C1.42236 1.74104 1.7408 1.42261 2.13361 1.42261ZM14.0236 5.19431C14.2974 5.47595 14.2911 5.92625 14.0094 6.20007L11.4489 8.68944C11.3161 8.81852 11.1383 8.89073 10.9531 8.89073H7.82787L5.47441 11.1788C5.19277 11.4526 4.74247 11.4463 4.46865 11.1647C4.19483 10.883 4.20117 10.4327 4.48282 10.1589L7.04332 7.66952C7.17608 7.54044 7.35395 7.46823 7.53911 7.46823H10.6644L13.0178 5.18014C13.2995 4.90632 13.7498 4.91267 14.0236 5.19431Z" fill="black"/>
</svg>
