<svg width="50" height="50" viewBox="0 0 50 50" fill="none" xmlns="http://www.w3.org/2000/svg">
<path fill-rule="evenodd" clip-rule="evenodd" d="M34.375 21.875C34.375 21.0121 35.0746 20.3125 35.9375 20.3125H43.75C44.6129 20.3125 45.3125 21.0121 45.3125 21.875V45.3125C45.3125 46.1754 44.6129 46.875 43.75 46.875H35.9375C35.0746 46.875 34.375 46.1754 34.375 45.3125V21.875ZM37.5 23.4375V43.75H42.1875V23.4375H37.5ZM18.75 28.125C18.75 27.2621 19.4496 26.5625 20.3125 26.5625H28.125C28.9879 26.5625 29.6875 27.2621 29.6875 28.125V45.3125C29.6875 46.1754 28.9879 46.875 28.125 46.875H20.3125C19.4496 46.875 18.75 46.1754 18.75 45.3125V28.125ZM21.875 29.6875V43.75H26.5625V29.6875H21.875ZM3.125 34.375C3.125 33.5121 3.82456 32.8125 4.6875 32.8125H12.5C13.3629 32.8125 14.0625 33.5121 14.0625 34.375V45.3125C14.0625 46.1754 13.3629 46.875 12.5 46.875H4.6875C3.82456 46.875 3.125 46.1754 3.125 45.3125V34.375ZM6.25 35.9375V43.75H10.9375V35.9375H6.25Z" fill="#222831"/>
<path fill-rule="evenodd" clip-rule="evenodd" d="M37.4998 4.6875C37.4998 3.82456 38.1994 3.125 39.0623 3.125H45.3123C46.1752 3.125 46.8748 3.82456 46.8748 4.6875V10.9375C46.8748 11.8004 46.1752 12.5 45.3123 12.5C44.4494 12.5 43.7498 11.8004 43.7498 10.9375V8.16694L32.2879 18.3553C31.7696 18.816 31.0097 18.88 30.4217 18.5125L18.7031 11.1884L5.44611 18.5534C4.69176 18.9725 3.74051 18.7007 3.32143 17.9463C2.90234 17.192 3.17413 16.2407 3.92848 15.8216L17.991 8.00913C18.488 7.73301 19.0958 7.74866 19.5779 8.05L31.086 15.2425L41.2026 6.25H39.0623C38.1994 6.25 37.4998 5.55044 37.4998 4.6875Z" fill="#B4F7EE"/>
</svg>
