<svg xmlns="http://www.w3.org/2000/svg" xmlns:xlink="http://www.w3.org/1999/xlink" width="810" zoomAndPan="magnify" viewBox="0 0 607.5 607.499986" height="810" preserveAspectRatio="xMidYMid meet" version="1.0"><defs><clipPath id="98ebc6ec1f"><path d="M 75.3125 99.558594 L 531.6875 99.558594 L 531.6875 507 L 75.3125 507 Z M 75.3125 99.558594 " clip-rule="nonzero"/></clipPath></defs><g clip-path="url(#98ebc6ec1f)"><path fill="#000000" d="M 153.476562 502.605469 C 156.503906 505.4375 160.414062 506.859375 164.332031 506.859375 C 167.902344 506.859375 171.46875 505.675781 174.398438 503.292969 C 184.359375 495.167969 191.882812 488.207031 198.078125 481.382812 C 202.792969 476.195312 203.472656 468.648438 200.097656 462.769531 C 233.605469 451.984375 262.535156 428.65625 280.050781 398.0625 C 287.730469 384.65625 292.167969 372.964844 296.730469 360.695312 C 299.59375 369.359375 304.34375 374.148438 308.695312 376.796875 C 312.648438 379.199219 316.988281 380.210938 320.933594 380.210938 C 324.539062 380.210938 327.824219 379.367188 330.191406 377.992188 C 336.449219 374.339844 338.722656 365.703125 340.164062 349.617188 C 341.878906 350.019531 343.613281 350.214844 345.292969 350.214844 C 349.40625 350.214844 353.238281 349.121094 356 347.507812 C 363.820312 342.949219 364.820312 334.496094 365.359375 329.949219 L 369.5 295.019531 L 510.53125 251.183594 C 526.128906 246.332031 534.917969 230.210938 530.550781 214.484375 L 504.859375 121.984375 C 502.703125 114.238281 497.667969 107.800781 490.65625 103.855469 C 483.648438 99.914062 475.527344 98.941406 467.78125 101.113281 L 287.671875 151.78125 C 274.046875 155.613281 265.882812 169.890625 269.460938 183.609375 C 271.507812 191.457031 273.652344 199.328125 275.882812 207.175781 C 248.421875 212.21875 191.078125 226.414062 167.828125 259.65625 C 159.550781 271.496094 156.964844 287.425781 154.21875 304.289062 C 151.972656 318.136719 149.652344 332.449219 144.164062 346.757812 C 140.898438 355.292969 127.023438 375.3125 119.472656 385.75 C 112.976562 381.941406 104.601562 383.171875 99.5 389.03125 L 79.257812 412.257812 C 73.605469 418.742188 74.101562 428.425781 80.386719 434.296875 Z M 324.660156 368.488281 C 323.503906 369.160156 318.941406 370.148438 314.4375 367.40625 C 307.921875 363.445312 304.667969 353.378906 305.1875 339.007812 C 305.527344 338.210938 305.859375 337.421875 306.214844 336.613281 C 309.554688 328.9375 314.464844 321.492188 319.988281 314.210938 C 320.613281 327.644531 323.84375 337.441406 329.632812 343.492188 C 329.171875 349.847656 328.539062 356.652344 327.449219 361.628906 C 326.136719 367.5625 324.714844 368.453125 324.660156 368.488281 Z M 290.65625 162.378906 L 470.765625 111.714844 C 475.664062 110.339844 480.8125 110.953125 485.253906 113.449219 C 489.691406 115.941406 492.886719 120.023438 494.253906 124.929688 L 519.953125 217.429688 C 522.722656 227.398438 517.15625 237.605469 507.273438 240.675781 L 364.304688 285.113281 C 363.285156 285.152344 362.324219 285.453125 361.507812 285.984375 L 348.789062 289.9375 C 345.890625 290.835938 344.265625 293.925781 345.164062 296.824219 C 345.898438 299.179688 348.074219 300.695312 350.421875 300.695312 C 350.964844 300.695312 351.515625 300.613281 352.054688 300.445312 L 357.992188 298.605469 L 354.433594 328.664062 C 353.855469 333.5625 353.046875 336.503906 350.460938 338.015625 C 349.109375 338.804688 344.277344 340.449219 339.898438 337.789062 C 336.054688 335.449219 329.789062 327.839844 331.035156 303.160156 C 331.074219 302.363281 330.945312 301.601562 330.667969 300.90625 C 331.421875 299.996094 332.171875 299.097656 332.933594 298.191406 C 337.925781 292.210938 343.09375 286.03125 347.550781 279.925781 C 361.09375 261.382812 359.414062 239.445312 349.953125 228.945312 C 342.871094 221.089844 332.394531 220.023438 321.914062 226.09375 C 314.042969 230.660156 306.125 236.253906 298.070312 242.4375 C 291.527344 222.160156 285.488281 201.445312 280.113281 180.839844 C 278.03125 172.878906 282.765625 164.597656 290.65625 162.378906 Z M 154.441406 350.699219 C 160.320312 335.332031 162.855469 319.777344 165.082031 306.058594 C 167.726562 289.792969 170.011719 275.75 176.847656 265.96875 C 191.855469 244.5 229.925781 226.589844 278.957031 217.8125 C 281.8125 227.488281 284.773438 237.125 287.855469 246.664062 C 288.179688 247.664062 288.765625 248.507812 289.507812 249.140625 C 285.113281 252.660156 280.664062 256.292969 276.140625 259.996094 C 258.992188 274.035156 241.257812 288.554688 224.273438 297.503906 C 221.585938 298.925781 220.558594 302.246094 221.96875 304.941406 C 223.382812 307.636719 226.714844 308.65625 229.410156 307.242188 C 247.386719 297.769531 265.550781 282.894531 283.121094 268.515625 C 298.65625 255.804688 313.328125 243.792969 327.4375 235.613281 C 333.410156 232.148438 338.230469 232.386719 341.769531 236.3125 C 348.175781 243.417969 348.449219 260.035156 338.652344 273.429688 C 334.402344 279.246094 329.578125 285.023438 324.476562 291.140625 C 313.703125 304.042969 302.566406 317.382812 296.113281 332.222656 C 295.804688 332.9375 295.507812 333.632812 295.214844 334.332031 C 294.792969 334.945312 294.492188 335.652344 294.335938 336.414062 C 291.527344 343.152344 289.195312 349.425781 286.929688 355.515625 C 282.351562 367.847656 278.019531 379.496094 270.507812 392.609375 C 253.585938 422.144531 225.152344 444.335938 192.398438 453.617188 C 174.441406 433.835938 151.265625 411.835938 128.117188 392.589844 C 134.28125 384.070312 150.347656 361.390625 154.441406 350.699219 Z M 87.554688 419.503906 L 107.792969 396.277344 C 108.765625 395.167969 110.113281 394.589844 111.480469 394.589844 C 112.566406 394.589844 113.648438 394.945312 114.546875 395.679688 C 142 417.871094 170.210938 444.714844 190.011719 467.472656 C 191.644531 469.34375 191.609375 472.148438 189.9375 473.984375 C 184.121094 480.394531 176.976562 486.988281 167.449219 494.765625 C 165.550781 496.3125 162.78125 496.222656 161 494.5625 L 87.902344 426.273438 C 85.964844 424.472656 85.820312 421.503906 87.554688 419.503906 Z M 87.554688 419.503906 " fill-opacity="1" fill-rule="nonzero"/></g><path fill="#000000" d="M 419.308594 184.03125 C 424.117188 186.378906 428.015625 190.808594 429.742188 195.871094 C 431.46875 200.933594 431.082031 206.820312 428.707031 211.613281 C 427.355469 214.339844 428.476562 217.640625 431.191406 218.988281 C 431.980469 219.375 432.808594 219.554688 433.632812 219.554688 C 435.660156 219.554688 437.605469 218.429688 438.570312 216.492188 C 442.265625 209.019531 442.855469 200.214844 440.164062 192.320312 C 437.476562 184.433594 431.640625 177.804688 424.144531 174.144531 C 421.410156 172.808594 418.117188 173.945312 416.777344 176.667969 C 415.449219 179.398438 416.574219 182.691406 419.308594 184.03125 Z M 419.308594 184.03125 " fill-opacity="1" fill-rule="nonzero"/><path fill="#000000" d="M 428.292969 160.335938 C 437.925781 164.472656 446.175781 173.171875 450.378906 183.617188 C 454.617188 194.164062 454.855469 206.828125 451.027344 217.503906 C 450 220.363281 451.488281 223.507812 454.351562 224.535156 C 454.964844 224.757812 455.589844 224.855469 456.210938 224.855469 C 458.46875 224.855469 460.589844 223.453125 461.398438 221.207031 C 466.175781 207.882812 465.894531 192.679688 460.597656 179.511719 C 455.269531 166.230469 445.074219 155.558594 432.640625 150.21875 C 429.851562 149.019531 426.613281 150.3125 425.410156 153.101562 C 424.210938 155.898438 425.503906 159.132812 428.292969 160.335938 Z M 428.292969 160.335938 " fill-opacity="1" fill-rule="nonzero"/><path fill="#000000" d="M 441.257812 139.777344 C 456.230469 146.71875 468.160156 159.839844 473.984375 175.785156 C 479.828125 191.78125 479.277344 209.890625 472.472656 225.480469 C 471.25 228.269531 472.527344 231.503906 475.316406 232.726562 C 476.03125 233.035156 476.785156 233.183594 477.519531 233.183594 C 479.636719 233.183594 481.664062 231.945312 482.5625 229.882812 C 490.492188 211.734375 491.132812 190.644531 484.324219 172.019531 C 477.5 153.347656 463.488281 137.960938 445.882812 129.796875 C 443.121094 128.523438 439.851562 129.714844 438.570312 132.476562 C 437.304688 135.226562 438.496094 138.5 441.257812 139.777344 Z M 441.257812 139.777344 " fill-opacity="1" fill-rule="nonzero"/><path stroke-linecap="butt" transform="matrix(0.729296, -0.172346, 0.172346, 0.729296, 319.941571, 146.335858)" fill="none" stroke-linejoin="miter" d="M -0.000982901 1.997737 L 110.154393 1.998368 " stroke="#000000" stroke-width="4" stroke-opacity="1" stroke-miterlimit="4"/></svg>