<svg xmlns="http://www.w3.org/2000/svg" xmlns:xlink="http://www.w3.org/1999/xlink" width="810" zoomAndPan="magnify" viewBox="0 0 607.5 607.499986" height="810" preserveAspectRatio="xMidYMid meet" version="1.0"><defs><clipPath id="7a6f602197"><path d="M 183.742188 85 L 423.546875 85 L 423.546875 522 L 183.742188 522 Z M 183.742188 85 " clip-rule="nonzero"/></clipPath></defs><g clip-path="url(#7a6f602197)"><path stroke-linecap="round" transform="matrix(0.219399, 0, 0, -0.219131, -162.90619, 769.367462)" fill="none" stroke-linejoin="round" d="M 2642.39792 1160.000224 L 1609.602719 1160.000224 L 1609.602719 3091.994884 L 2642.39792 3091.994884 Z M 2642.39792 1160.000224 " stroke="#231f1f" stroke-width="60" stroke-opacity="1" stroke-miterlimit="10"/></g><path stroke-linecap="round" transform="matrix(0.219399, 0, 0, -0.219131, -162.90619, 769.367462)" fill="none" stroke-linejoin="round" d="M 2385.498838 2883.99974 L 2307.693793 2743.102104 L 1944.306846 2743.102104 L 1866.394975 2883.99974 L 1733.004724 2883.99974 L 1733.004724 1502.29734 L 2518.995915 1502.29734 L 2518.995915 2883.99974 Z M 2385.498838 2883.99974 " stroke="#231f1f" stroke-width="60" stroke-opacity="1" stroke-miterlimit="10"/><path stroke-linecap="round" transform="matrix(0.219399, 0, 0, -0.219131, -162.90619, 769.367462)" fill="none" stroke-linejoin="round" d="M 2077.394422 2905.908039 L 2291.598654 2905.908039 " stroke="#231f1f" stroke-width="60" stroke-opacity="1" stroke-miterlimit="10"/><path stroke-linecap="round" transform="matrix(0.219399, 0, 0, -0.219131, -162.90619, 769.367462)" fill="none" stroke-linejoin="round" d="M 2005.998946 2906.692388 C 2005.998946 2894.107149 1995.797049 2883.99974 1983.191564 2883.99974 C 1970.603882 2883.99974 1960.401985 2894.107149 1960.401985 2906.692388 C 1960.401985 2919.295454 1970.603882 2929.491993 1983.191564 2929.491993 C 1995.797049 2929.491993 2005.998946 2919.295454 2005.998946 2906.692388 Z M 2005.998946 2906.692388 " stroke="#231f1f" stroke-width="60" stroke-opacity="1" stroke-miterlimit="10"/><path stroke-linecap="round" transform="matrix(0.219399, 0, 0, -0.219131, -162.90619, 769.367462)" fill="none" stroke-linejoin="round" d="M 2202.007124 2993.897757 C 2202.007124 2981.294692 2191.805227 2971.098153 2179.306568 2971.098153 C 2166.701082 2971.098153 2156.499185 2981.294692 2156.499185 2993.897757 C 2156.499185 3006.393866 2166.701082 3016.608232 2179.306568 3016.608232 C 2191.805227 3016.608232 2202.007124 3006.393866 2202.007124 2993.897757 Z M 2202.007124 2993.897757 " stroke="#231f1f" stroke-width="60" stroke-opacity="1" stroke-miterlimit="10"/><path stroke-linecap="round" transform="matrix(0.219399, 0, 0, -0.219131, -162.90619, 769.367462)" fill="none" stroke-linejoin="round" d="M 2221.894592 1331.701392 C 2221.894592 1278.704343 2179.003893 1235.796877 2126.00032 1235.796877 C 2072.996746 1235.796877 2030.106047 1278.704343 2030.106047 1331.701392 C 2030.106047 1384.69844 2072.996746 1427.605906 2126.00032 1427.605906 C 2179.003893 1427.605906 2221.894592 1384.69844 2221.894592 1331.701392 Z M 2221.894592 1331.701392 " stroke="#231f1f" stroke-width="60" stroke-opacity="1" stroke-miterlimit="10"/><path stroke-linecap="round" transform="matrix(0.219399, 0, 0, -0.219131, -162.90619, 769.367462)" fill="none" stroke-linejoin="round" d="M 2189.401639 2105.408388 C 2189.401639 2070.397892 2161.003687 2042.000886 2126.00032 2042.000886 C 2090.996952 2042.000886 2062.599 2070.397892 2062.599 2105.408388 C 2062.599 2140.401057 2090.996952 2168.798063 2126.00032 2168.798063 C 2161.003687 2168.798063 2189.401639 2140.401057 2189.401639 2105.408388 Z M 2189.401639 2105.408388 " stroke="#231f1f" stroke-width="60" stroke-opacity="1" stroke-miterlimit="10"/><path stroke-linecap="round" transform="matrix(0.219399, 0, 0, -0.219131, -162.90619, 769.367462)" fill="none" stroke-linejoin="round" d="M 2435.404454 2168.798063 C 2435.404454 2328.591384 2296.904352 2458.098131 2126.00032 2458.098131 C 1955.203113 2458.098131 1816.596185 2328.591384 1816.596185 2168.798063 " stroke="#231f1f" stroke-width="60" stroke-opacity="1" stroke-miterlimit="10"/><path stroke-linecap="round" transform="matrix(0.219399, 0, 0, -0.219131, -162.90619, 769.367462)" fill="none" stroke-linejoin="round" d="M 2354.999973 2140.900189 C 2354.999973 2263.294314 2252.500283 2362.496661 2126.00032 2362.496661 C 1999.500356 2362.496661 1897.000666 2263.294314 1897.000666 2140.900189 " stroke="#231f1f" stroke-width="60" stroke-opacity="1" stroke-miterlimit="10"/><path stroke-linecap="round" transform="matrix(0.219399, 0, 0, -0.219131, -162.90619, 769.367462)" fill="none" stroke-linejoin="round" d="M 2272.29873 2120.59624 C 2272.29873 2201.295076 2206.796496 2266.80606 2126.00032 2266.80606 C 2045.204143 2266.80606 1979.808736 2201.295076 1979.808736 2120.59624 " stroke="#231f1f" stroke-width="60" stroke-opacity="1" stroke-miterlimit="10"/><path stroke-linecap="round" transform="matrix(0.219399, 0, 0, -0.219131, -162.90619, 769.367462)" fill="none" stroke-linejoin="round" d="M 2126.00032 2042.000886 L 2126.00032 1756.497782 " stroke="#231f1f" stroke-width="60" stroke-opacity="1" stroke-miterlimit="10"/></svg>