<svg width="18" height="18" viewBox="0 0 18 18" fill="none" xmlns="http://www.w3.org/2000/svg">
<path d="M8.54322 6.51131C8.04479 6.51131 7.57804 6.70468 7.22464 7.05808C6.8729 7.41148 6.67787 7.87824 6.67787 8.37666C6.67787 8.87509 6.8729 9.34184 7.22464 9.69524C7.57804 10.047 8.04479 10.242 8.54322 10.242C9.04164 10.242 9.50839 10.047 9.86179 9.69524C10.2135 9.34184 10.4086 8.87509 10.4086 8.37666C10.4086 7.87824 10.2135 7.41148 9.86179 7.05808C9.68918 6.88415 9.48373 6.74624 9.25737 6.65238C9.03102 6.55851 8.78826 6.51057 8.54322 6.51131ZM15.4162 10.437L14.326 9.5052C14.3776 9.18848 14.4043 8.86509 14.4043 8.54336C14.4043 8.22163 14.3776 7.89657 14.326 7.58151L15.4162 6.64967C15.4985 6.57917 15.5575 6.48527 15.5852 6.38045C15.6128 6.27564 15.608 6.16488 15.5712 6.0629L15.5562 6.01956C15.2562 5.18055 14.8066 4.40285 14.2293 3.72413L14.1993 3.68912C14.1292 3.60669 14.0357 3.54744 13.9313 3.51917C13.8268 3.4909 13.7163 3.49494 13.6142 3.53076L12.2606 4.01252C11.7605 3.60244 11.2037 3.27905 10.6003 3.05401L10.3385 1.63874C10.3188 1.53213 10.2671 1.43404 10.1903 1.35752C10.1134 1.281 10.0152 1.22966 9.90847 1.21033L9.86346 1.20199C8.99663 1.0453 8.08313 1.0453 7.2163 1.20199L7.17129 1.21033C7.0646 1.22966 6.96632 1.281 6.8895 1.35752C6.81268 1.43404 6.76096 1.53213 6.74121 1.63874L6.47783 3.06067C5.8801 3.28751 5.32328 3.61012 4.82919 4.01585L3.46561 3.53076C3.36353 3.49466 3.25288 3.49047 3.14837 3.51876C3.04386 3.54704 2.95043 3.60647 2.8805 3.68912L2.85049 3.72413C2.2742 4.40357 1.82475 5.18108 1.52358 6.01956L1.50858 6.0629C1.43356 6.27127 1.49524 6.50465 1.6636 6.64967L2.76714 7.59152C2.71547 7.90491 2.69046 8.22497 2.69046 8.54169C2.69046 8.86175 2.71547 9.18181 2.76714 9.49187L1.66694 10.4337C1.58458 10.5042 1.52564 10.5981 1.49795 10.7029C1.47025 10.8077 1.47512 10.9185 1.51191 11.0205L1.52691 11.0638C1.82863 11.9023 2.27372 12.6775 2.85382 13.3593L2.88383 13.3943C2.95393 13.4767 3.04737 13.5359 3.15182 13.5642C3.25627 13.5925 3.36683 13.5884 3.46894 13.5526L4.83253 13.0675C5.32928 13.4759 5.88272 13.7993 6.48117 14.0227L6.74455 15.4446C6.76429 15.5513 6.81601 15.6493 6.89283 15.7259C6.96965 15.8024 7.06794 15.8537 7.17463 15.8731L7.21964 15.8814C8.09499 16.0389 8.99144 16.0389 9.86679 15.8814L9.9118 15.8731C10.0185 15.8537 10.1168 15.8024 10.1936 15.7259C10.2704 15.6493 10.3221 15.5513 10.3419 15.4446L10.6036 14.0294C11.207 13.8027 11.7638 13.4809 12.2639 13.0709L13.6175 13.5526C13.7196 13.5887 13.8302 13.5929 13.9347 13.5646C14.0392 13.5363 14.1327 13.4769 14.2026 13.3943L14.2326 13.3593C14.8127 12.6741 15.2578 11.9023 15.5595 11.0638L15.5745 11.0205C15.6462 10.8138 15.5845 10.5821 15.4162 10.437ZM8.54322 11.3072C6.92458 11.3072 5.61267 9.9953 5.61267 8.37666C5.61267 6.75803 6.92458 5.44612 8.54322 5.44612C10.1618 5.44612 11.4738 6.75803 11.4738 8.37666C11.4738 9.9953 10.1618 11.3072 8.54322 11.3072Z" fill="#111111"/>
</svg>
