<svg width="18" height="18" viewBox="0 0 18 18" fill="none" xmlns="http://www.w3.org/2000/svg">
<path fill-rule="evenodd" clip-rule="evenodd" d="M3.20068 2.66723C3.20068 2.37262 3.43951 2.13379 3.73412 2.13379H13.336C13.6306 2.13379 13.8694 2.37262 13.8694 2.66723V14.4029C13.8694 14.6975 13.6306 14.9363 13.336 14.9363H3.73412C3.43951 14.9363 3.20068 14.6975 3.20068 14.4029V2.66723ZM4.26756 3.20066V13.8694H12.8026V3.20066H4.26756Z" fill="black"/>
<path fill-rule="evenodd" clip-rule="evenodd" d="M5.33447 2.66723C5.33447 2.37262 5.5733 2.13379 5.86791 2.13379H11.2023C11.4969 2.13379 11.7357 2.37262 11.7357 2.66723V4.80098C11.7357 5.09559 11.4969 5.33441 11.2023 5.33441H5.86791C5.5733 5.33441 5.33447 5.09559 5.33447 4.80098V2.66723ZM6.40135 3.20066V4.26754H10.6688V3.20066H6.40135Z" fill="black"/>
<path fill-rule="evenodd" clip-rule="evenodd" d="M4.80078 6.9348C4.80078 6.6402 5.05798 6.40137 5.37525 6.40137H11.6944C12.0117 6.40137 12.2689 6.6402 12.2689 6.9348C12.2689 7.22941 12.0117 7.46824 11.6944 7.46824H5.37525C5.05798 7.46824 4.80078 7.22941 4.80078 6.9348Z" fill="black"/>
<path fill-rule="evenodd" clip-rule="evenodd" d="M9.60205 10.6687C9.60205 10.3741 9.84088 10.1353 10.1355 10.1353L11.7358 10.1353C12.0304 10.1353 12.2692 10.3741 12.2692 10.6687C12.2692 10.9633 12.0304 11.2021 11.7358 11.2021L10.1355 11.2021C9.84088 11.2021 9.60205 10.9633 9.60205 10.6687Z" fill="black"/>
<path fill-rule="evenodd" clip-rule="evenodd" d="M9.60205 9.06835C9.60205 8.77374 9.84088 8.53491 10.1355 8.53491L11.7358 8.53491C12.0304 8.53491 12.2692 8.77374 12.2692 9.06835C12.2692 9.36296 12.0304 9.60179 11.7358 9.60179L10.1355 9.60179C9.84088 9.60179 9.60205 9.36296 9.60205 9.06835Z" fill="black"/>
<path fill-rule="evenodd" clip-rule="evenodd" d="M9.60205 12.269C9.60205 11.9744 9.84088 11.7356 10.1355 11.7356L11.7358 11.7356C12.0304 11.7356 12.2692 11.9744 12.2692 12.269C12.2692 12.5636 12.0304 12.8025 11.7358 12.8025L10.1355 12.8025C9.84088 12.8025 9.60205 12.5636 9.60205 12.269Z" fill="black"/>
<path fill-rule="evenodd" clip-rule="evenodd" d="M4.80078 8.5349C4.80078 8.24029 5.03961 8.00146 5.33422 8.00146H8.53484C8.82945 8.00146 9.06828 8.24029 9.06828 8.5349V12.8024C9.06828 13.097 8.82945 13.3358 8.53484 13.3358H5.33422C5.03961 13.3358 4.80078 13.097 4.80078 12.8024V8.5349ZM5.86766 9.06834V12.269H8.00141V9.06834H5.86766Z" fill="black"/>
</svg>
