<svg xmlns="http://www.w3.org/2000/svg" xmlns:xlink="http://www.w3.org/1999/xlink" width="810" zoomAndPan="magnify" viewBox="0 0 607.5 607.499986" height="810" preserveAspectRatio="xMidYMid meet" version="1.0"><defs><clipPath id="228e4edaf8"><path d="M 91.003906 45.144531 L 515.902344 45.144531 L 515.902344 562.21875 L 91.003906 562.21875 Z M 91.003906 45.144531 " clip-rule="nonzero"/></clipPath></defs><g clip-path="url(#228e4edaf8)"><path fill="#121214" d="M 371.542969 86.167969 C 438.171875 86.078125 472.015625 85.984375 473.039062 85.953125 C 489.144531 85.351562 501.421875 86.5 511.3125 100.050781 C 517.710938 108.777344 515.507812 125.746094 515.628906 132.871094 C 515.867188 147.332031 505.824219 157.203125 492.132812 158.230469 C 491.105469 158.320312 490.261719 159.136719 490.167969 160.160156 C 476.480469 287.386719 464.863281 401.289062 455.367188 501.855469 C 453.617188 520.179688 451.113281 531.894531 447.855469 536.996094 C 441.792969 546.445312 433.796875 553.507812 423.875 558.1875 C 418.050781 560.9375 407.800781 562.234375 393.167969 562.144531 C 322.621094 561.691406 266.25 561.691406 223.992188 562.117188 C 203.453125 562.324219 190.273438 560.9375 184.453125 557.980469 C 173.625 552.515625 165.570312 544.542969 160.230469 534.097656 C 157.667969 529.113281 155.558594 517.949219 153.867188 500.554688 C 140.144531 359.898438 128.683594 246.777344 119.515625 161.1875 C 119.394531 160.074219 118.488281 159.226562 117.371094 159.164062 C 92.671875 157.808594 89.746094 138.003906 91.371094 116.386719 C 92.851562 96.519531 103.800781 86.527344 124.160156 86.40625 C 131.699219 86.347656 168.949219 86.226562 235.941406 86.046875 C 236.875 86.046875 237.628906 85.289062 237.59375 84.355469 C 237.386719 67.539062 243.570312 55.703125 256.203125 48.910156 C 261.0625 46.285156 269.355469 45.078125 281.085938 45.230469 C 300.933594 45.5 316.167969 45.5 326.785156 45.230469 C 354.019531 44.503906 368.320312 57.546875 369.613281 84.328125 C 369.675781 85.351562 370.519531 86.167969 371.542969 86.167969 M 256.175781 85.953125 L 351.003906 86.136719 C 351.515625 86.136719 351.9375 85.710938 351.9375 85.199219 L 351.96875 80.824219 C 351.96875 70.921875 344.550781 62.859375 335.347656 62.859375 L 271.949219 62.738281 C 262.753906 62.738281 255.269531 70.742188 255.269531 80.640625 L 255.242188 85.019531 C 255.242188 85.53125 255.664062 85.953125 256.175781 85.953125 M 117.160156 141.957031 L 489.777344 141.957031 C 494.847656 141.957031 498.976562 137.824219 498.976562 132.75 L 498.976562 120.371094 C 498.976562 110.742188 490.621094 102.953125 480.308594 102.953125 L 126.632812 102.953125 C 116.316406 102.953125 107.960938 110.742188 107.960938 120.371094 L 107.960938 132.75 C 107.960938 137.824219 112.09375 141.957031 117.160156 141.957031 M 304.675781 544.664062 C 339.210938 544.664062 370.972656 544.636719 399.898438 544.601562 C 413.859375 544.574219 423.933594 540.015625 430.058594 530.867188 C 433.585938 525.582031 436.179688 514.535156 437.808594 497.65625 C 446.738281 404.21875 458.078125 292.035156 471.859375 161.128906 C 471.953125 160.195312 471.230469 159.378906 470.292969 159.378906 C 394.558594 159.316406 339.390625 159.257812 304.765625 159.257812 C 270.140625 159.257812 214.972656 159.257812 139.238281 159.316406 C 138.304688 159.316406 137.582031 160.132812 137.671875 161.070312 C 151.390625 291.972656 162.703125 404.160156 171.570312 497.597656 C 173.199219 514.472656 175.796875 525.554688 179.324219 530.808594 C 185.449219 539.957031 195.492188 544.542969 209.484375 544.574219 C 238.410156 544.601562 270.140625 544.636719 304.675781 544.664062 Z M 304.675781 544.664062 " fill-opacity="1" fill-rule="nonzero"/></g><path fill="#121214" d="M 312.910156 482.5625 C 312.910156 487.210938 309.167969 490.957031 304.523438 490.957031 L 303.863281 490.957031 C 299.21875 490.957031 295.476562 487.210938 295.476562 482.5625 L 295.476562 216.949219 C 295.476562 212.300781 299.21875 208.558594 303.863281 208.558594 L 304.523438 208.558594 C 309.167969 208.558594 312.910156 212.300781 312.910156 216.949219 Z M 312.910156 482.5625 " fill-opacity="1" fill-rule="nonzero"/><path fill="#121214" d="M 384.460938 483.4375 C 384.03125 488.300781 379.75 491.863281 374.917969 491.453125 L 374.734375 491.4375 C 369.882812 491.015625 366.292969 486.726562 366.730469 481.886719 L 389.816406 217.765625 C 390.242188 212.90625 394.527344 209.339844 399.355469 209.75 L 399.535156 209.769531 C 404.390625 210.1875 407.980469 214.472656 407.546875 219.320312 Z M 384.460938 483.4375 " fill-opacity="1" fill-rule="nonzero"/><path fill="#121214" d="M 242.515625 481.277344 C 242.933594 486.15625 239.34375 490.445312 234.496094 490.875 L 234.316406 490.890625 C 229.453125 491.320312 225.171875 487.726562 224.730469 482.867188 L 201.3125 220.230469 C 200.890625 215.351562 204.480469 211.0625 209.328125 210.632812 L 209.507812 210.613281 C 214.371094 210.1875 218.65625 213.78125 219.097656 218.640625 Z M 242.515625 481.277344 " fill-opacity="1" fill-rule="nonzero"/></svg>