<svg width="30" height="30" viewBox="0 0 30 30" fill="none" xmlns="http://www.w3.org/2000/svg">
<path fill-rule="evenodd" clip-rule="evenodd" d="M15 3C8.37258 3 3 8.37258 3 15C3 18.1487 4.21209 21.0148 6.19799 23.1566C6.27297 22.9085 6.37269 22.6649 6.50277 22.4323C6.94376 21.6438 7.50007 20.9148 8.16013 20.2701C8.82256 19.6231 9.56992 19.0801 10.376 18.6511C9.14831 17.4759 8.38074 15.8335 8.38074 14C8.38074 10.377 11.3778 7.5 15 7.5C18.6222 7.5 21.6193 10.377 21.6193 14C21.6193 15.8335 20.8517 17.4759 19.624 18.6511C20.4301 19.0801 21.1774 19.6231 21.8399 20.2701C22.4999 20.9148 23.0562 21.6438 23.4972 22.4323C23.6273 22.6649 23.727 22.9085 23.802 23.1566C25.7879 21.0148 27 18.1487 27 15C27 8.37258 21.6274 3 15 3ZM20.9117 25.4455C20.9699 25.1459 20.9991 24.8646 21 24.6154C21.0014 24.2037 20.926 23.9809 20.8789 23.8967C20.5781 23.3589 20.1975 22.8595 19.7437 22.4162C18.4915 21.1932 16.7858 20.5 15 20.5C13.2142 20.5 11.5085 21.1932 10.2563 22.4162C9.80249 22.8595 9.42189 23.3589 9.12106 23.8967C9.07401 23.9809 8.99858 24.2037 9.00002 24.6154C9.00089 24.8646 9.03008 25.1459 9.08832 25.4455C10.8323 26.4349 12.8482 27 15 27C17.1518 27 19.1677 26.4349 20.9117 25.4455ZM15 17.5C17.0324 17.5 18.6193 15.8999 18.6193 14C18.6193 12.1001 17.0324 10.5 15 10.5C12.9676 10.5 11.3807 12.1001 11.3807 14C11.3807 15.8999 12.9676 17.5 15 17.5ZM0 15C0 6.71573 6.71573 0 15 0C23.2843 0 30 6.71573 30 15C30 20.3359 27.2128 25.0197 23.022 27.6767C20.7011 29.1482 17.9477 30 15 30C12.0523 30 9.29893 29.1482 6.97802 27.6767C2.7872 25.0197 0 20.3359 0 15Z" fill="black"/>
</svg>
