<svg width="18" height="18" viewBox="0 0 18 18" fill="none" xmlns="http://www.w3.org/2000/svg">
<path d="M15.4081 12.9219C15.1348 12.6527 11.8226 11.3716 11.2216 11.1299C10.6238 10.8925 10.3853 10.2345 10.3853 10.2345C10.3853 10.2345 10.1161 10.3833 10.1161 9.96534C10.1161 9.5469 10.3853 10.2345 10.6544 8.62085C10.6544 8.62085 11.401 8.41137 11.2527 6.67904H11.0733C11.0733 6.67904 11.5218 4.82693 11.0733 4.20006C10.6232 3.5732 10.447 3.15528 9.45867 2.85557C8.47193 2.55638 8.83075 2.61601 8.11417 2.64661C7.39655 2.67669 6.79923 3.06505 6.79923 3.27348C6.79923 3.27348 6.35071 3.30356 6.17236 3.48296C5.99296 3.66237 5.6943 4.49819 5.6943 4.70715C5.6943 4.91611 5.84363 6.32181 5.99296 6.61941L5.81513 6.67746C5.6658 8.41031 6.41245 8.62032 6.41245 8.62032C6.68156 10.2339 6.95067 9.54638 6.95067 9.96481C6.95067 10.3827 6.68156 10.2339 6.68156 10.2339C6.68156 10.2339 6.44253 10.8914 5.84521 11.1294C5.24789 11.3684 1.93204 12.6527 1.6624 12.9213C1.39329 13.1957 1.42337 14.4494 1.42337 14.4494H7.77436L8.23765 12.6237L7.82607 12.2121L8.53472 11.5024L9.24338 12.2116L8.8318 12.6232L9.29509 14.4489H15.6461C15.6461 14.4489 15.6793 13.1941 15.407 12.9203L15.4081 12.9219Z" fill="#111111"/>
</svg>
